<?xml version="1.0" encoding="utf-8"?>
<!-- Generator: Adobe Illustrator 26.0.1, SVG Export Plug-In . SVG Version: 6.00 Build 0)  -->
<svg version="1.1" id="Calque_3" xmlns="http://www.w3.org/2000/svg" xmlns:xlink="http://www.w3.org/1999/xlink" x="0px" y="0px"
	 viewBox="0 0 425.2 126.3" style="enable-background:new 0 0 425.2 126.3;" xml:space="preserve">
<style type="text/css">
	.st0{fill:#3C3C3B;}
	.st1{fill:#E52A36;}
</style>
<g>
	<g>
		<path class="st0" d="M42.3,34.9L38.7,52h32.5l3.6-17.1H42.3z M49.7,0l-3.9,18.3h35.7l4-18.3H49.7z"/>
		<polygon class="st0" points="130.7,26 111.7,58.6 104.8,26 85.2,26 97.9,77.8 71.4,120.5 91.4,120.5 151.4,26 		"/>
		<g>
			<path class="st0" d="M206.7,50.4c0-15.1-10.3-26.2-27.5-26.2c-16.2,0-32.5,13.9-32.5,36.4c0,16.8,12.9,28.4,28.3,28.4
				c15,0,23.6-7.8,27.6-15.8L188,66.8c-2,3.9-6.1,6.9-11.4,6.9c-8.6,0-12.8-5.6-12.8-12.2l41.2-0.1
				C206.2,57.7,206.7,53.3,206.7,50.4 M189.5,49.3h-24c2-6,6.1-10.2,13.5-10.2c7.9,0,10.5,5.4,10.5,9.4V49.3z"/>
			<polygon class="st0" points="212.6,0 208.5,18.6 234.1,18.6 219.6,87.2 239.1,87.2 253.7,18.6 278,18.6 282.1,0 			"/>
			<path class="st0" d="M324.2,50.4c0-15.1-10.3-26.2-27.5-26.2c-16.2,0-32.5,13.9-32.5,36.4c0,16.8,12.9,28.4,28.3,28.4
				c15,0,23.6-7.8,27.5-15.8l-14.5-6.5c-2,3.9-6.2,6.9-11.4,6.9c-8.6,0-12.8-5.6-12.8-12.2l41.2-0.1
				C323.7,57.7,324.2,53.3,324.2,50.4 M307.1,49.3h-24c2-6,6.2-10.2,13.5-10.2c7.9,0,10.5,5.4,10.5,9.4L307.1,49.3L307.1,49.3z"/>
			<polygon class="st0" points="425.2,0 398.4,0 361.3,33.9 368.5,0 349.1,0 330.6,87.2 349.9,87.2 355,63.4 366.3,53.1 383.1,87.2 
				406.2,87.2 381.4,39.6 			"/>
			<polygon class="st0" points="71,68.7 67.1,87.2 11.8,87.2 19.3,52 38.7,52 35.1,68.7 			"/>
			<polygon class="st1" points="23,34.9 19.4,52 0,52 3.6,34.9 			"/>
			<polygon class="st1" points="30.4,0 26.5,18.3 7.2,18.3 11,0 			"/>
		</g>
		<g>
			<path class="st1" d="M124.1,112.3c-0.3-1.4-1.3-2.7-3.3-2.7c-2.3,0-4.5,1.9-4.5,5.7c0,2.4,1.4,3.9,3.6,3.9c2.1,0,3.1-1.3,3.7-2.5
				l2.2,1c-1,2-2.9,3.9-6.1,3.9c-3.8,0-6.2-2.7-6.2-6.2c0-4.8,3.3-8,7.3-8c3.6,0,5.1,2.3,5.6,4.2L124.1,112.3z"/>
			<path class="st1" d="M135.8,110.2c-2.1,0-3.9,1.3-4.6,4.4l-1.4,6.3h-2.6l2.3-11c0.2-1.2,0.3-2.2,0.3-2.4h2.6
				c0,0.6-0.1,1.6-0.2,2.1c1.1-1.8,2.9-2.3,4.4-2.3c0.2,0,0.6,0,0.8,0.1l-0.6,2.9C136.4,110.3,136.1,110.2,135.8,110.2z"/>
			<path class="st1" d="M139.8,115c0,0.2,0,0.3,0,0.5c0,2.2,1.5,3.6,3.4,3.6c2.1,0,3.3-1.1,3.9-2.2l2,1.3c-0.9,1.8-3.1,3.2-5.9,3.2
				c-3.3,0-6.1-2.1-6.1-6.1c0-5.1,3.6-8.1,7.3-8.1c3.6,0,5.5,2.2,5.5,5.4c0,1.1-0.2,2-0.4,2.4L139.8,115L139.8,115z M147.3,112.9
				c0-0.1,0.1-0.3,0.1-0.6c0-1.3-0.8-2.9-3-2.9c-2.2,0-3.7,1.7-4.2,3.4H147.3z M145.6,105.9h-2.3l3.2-4.1h3.4L145.6,105.9z"/>
			<path class="st1" d="M165.6,107.6l-2.1,9.9c-0.3,1.4-0.3,2.5-0.3,3c0,0.1,0,0.2,0,0.4h-2.5c0-0.1-0.1-0.4-0.1-0.8
				c0-0.2,0-0.5,0.1-0.9c-0.9,1.1-2.3,2-4,2c-3.5,0-5.3-2.6-5.3-5.9c0-4.3,2.8-8.2,7-8.2c2.2,0,3.6,1,4.2,2.1l0.4-1.7L165.6,107.6
				L165.6,107.6z M154.2,115.4c0,2.1,1,3.6,3.2,3.6c2.6,0,4.4-2.6,4.4-6.1c0-1.9-0.9-3.4-3.1-3.4
				C155.8,109.5,154.2,112.7,154.2,115.4z"/>
			<path class="st1" d="M168.2,117.2l1.5-7.2h-2.4l0.5-2.4h0.4c1.6,0,2.5-0.8,2.8-2.2l0.4-2.1h2.4l-0.9,4.2h2.7l-0.5,2.4h-2.7
				l-1.5,7c-0.1,0.2-0.1,0.4-0.1,0.6c0,0.8,0.5,1.2,1.5,1.2c0.3,0,0.7,0,0.9-0.1l-0.4,2.1c-0.1,0.1-0.6,0.2-1.4,0.2
				c-1.9,0-3.2-1.1-3.2-2.9C168.1,117.9,168.1,117.5,168.2,117.2z"/>
			<path class="st1" d="M178.5,115c0,0.2,0,0.3,0,0.5c0,2.2,1.5,3.6,3.4,3.6c2.1,0,3.3-1.1,3.9-2.2l2,1.3c-0.9,1.8-3.1,3.2-5.9,3.2
				c-3.3,0-6.1-2.1-6.1-6.1c0-5.1,3.6-8.1,7.3-8.1c3.6,0,5.5,2.2,5.5,5.4c0,1.1-0.2,2-0.4,2.4L178.5,115L178.5,115z M186,112.9
				c0-0.1,0.1-0.3,0.1-0.6c0-1.3-0.8-2.9-3-2.9c-2.2,0-3.7,1.7-4.2,3.4H186z"/>
			<path class="st1" d="M195,121.3c-2.8,0-4.3-1.7-4.3-4.3c0-0.5,0.1-1,0.2-1.5l1.7-7.8h2.6l-1.6,7.8c-0.1,0.4-0.1,0.9-0.1,1.3
				c0,1.4,0.6,2.4,2.4,2.4c2,0,3.2-1.7,3.6-3.6l1.6-7.8h2.6l-2.1,9.9c-0.3,1.4-0.3,2.5-0.3,3c0,0.1,0,0.2,0,0.4h-2.5
				c0-0.1-0.1-0.4-0.1-0.8c0-0.1,0-0.4,0-0.8C197.8,120.7,196.2,121.3,195,121.3z"/>
			<path class="st1" d="M213.3,110.2c-2.1,0-4,1.3-4.6,4.4l-1.4,6.3h-2.6l2.3-11c0.2-1.2,0.3-2.2,0.3-2.4h2.6c0,0.6-0.1,1.6-0.2,2.1
				c1.1-1.8,2.9-2.3,4.4-2.3c0.2,0,0.6,0,0.8,0.1l-0.6,2.9C214,110.3,213.6,110.2,213.3,110.2z"/>
			<path class="st1" d="M216.8,116.3c0,1.6,1.1,2.9,2.9,2.9c1.5,0,2.1-0.9,2.1-1.8c0-0.7-0.4-1.2-1.2-1.6l-2-0.9
				c-1.5-0.7-2.4-1.9-2.4-3.4c0-2.2,1.8-4.3,4.9-4.3c3.5,0,4.6,2.4,4.8,3.9l-2.3,0.6c-0.2-1-0.8-2.3-2.7-2.3c-1.3,0-2.1,0.8-2.1,1.8
				c0,0.8,0.4,1.2,1.1,1.5l1.8,0.8c1.8,0.8,2.8,2.1,2.8,3.7c0,1.7-1.3,4.2-4.9,4.2c-3.7,0-5.1-2.7-5.1-4.6L216.8,116.3z"/>
			<path class="st1" d="M239.2,121.3c-3.5,0-5.3-2.6-5.3-5.9c0-4.3,2.8-8.2,7-8.2c2.2,0,3.6,1,4.2,2.1l1.8-8.4h2.6l-3.5,16.6
				c-0.3,1.4-0.3,2.5-0.3,3c0,0.1,0,0.2,0,0.4h-2.5c0-0.1-0.1-0.4-0.1-0.8c0-0.2,0-0.4,0.1-0.9C242.4,120.4,240.9,121.3,239.2,121.3
				z M236.6,115.4c0,2.1,1,3.6,3.2,3.6c2.6,0,4.4-2.6,4.4-6.1c0-1.9-0.9-3.4-3.1-3.4C238.2,109.5,236.6,112.7,236.6,115.4z"/>
			<path class="st1" d="M254.1,101c1.1,0,2,0.8,2,2.1c0,2.7-2.2,5.3-5.1,5.4l0.3-1.4c1.5-0.2,2.7-1.4,3-2.7
				c-0.1,0.1-0.4,0.1-0.6,0.1c-0.9,0-1.6-0.6-1.6-1.6C252,101.9,253,101,254.1,101z"/>
			<path class="st1" d="M269.1,107.6l-2.1,9.9c-0.3,1.4-0.3,2.5-0.3,3c0,0.1,0,0.2,0,0.4h-2.5c0-0.1-0.1-0.4-0.1-0.8
				c0-0.2,0-0.5,0.1-0.9c-0.9,1.1-2.3,2-4,2c-3.5,0-5.3-2.6-5.3-5.9c0-4.3,2.8-8.2,7-8.2c2.2,0,3.6,1,4.2,2.1l0.4-1.7L269.1,107.6
				L269.1,107.6z M257.6,115.4c0,2.1,1,3.6,3.2,3.6c2.6,0,4.4-2.6,4.4-6.1c0-1.9-0.9-3.4-3.1-3.4
				C259.2,109.5,257.6,112.7,257.6,115.4z"/>
			<path class="st1" d="M279.2,107.3c3.5,0,5.1,2.6,5.1,5.7c0,4.7-2.8,8.4-7,8.4c-1.8,0-3.6-0.9-4.4-2.4l-1.6,7.3h-2.6l3.5-16.3
				c0.2-1.2,0.3-2.1,0.3-2.4h2.6c0,0.2,0,0.9-0.2,1.5C276,107.9,277.6,107.3,279.2,107.3z M273.8,115.3c0,2.4,1.3,3.7,3.3,3.7
				c2.2,0,4.5-2.1,4.5-5.7c0-2.4-1.2-3.7-3.4-3.7C276,109.6,273.8,111.7,273.8,115.3z"/>
			<path class="st1" d="M294.6,107.3c3.5,0,5.1,2.6,5.1,5.7c0,4.7-2.8,8.4-7,8.4c-1.8,0-3.6-0.9-4.4-2.4l-1.6,7.3h-2.6l3.5-16.3
				c0.2-1.2,0.3-2.1,0.3-2.4h2.6c0,0.2,0,0.9-0.2,1.5C291.4,107.9,293,107.3,294.6,107.3z M289.2,115.3c0,2.4,1.3,3.7,3.3,3.7
				c2.2,0,4.5-2.1,4.5-5.7c0-2.4-1.2-3.7-3.4-3.7C291.4,109.6,289.2,111.7,289.2,115.3z"/>
			<path class="st1" d="M301.1,121l4.3-20.1h2.6l-4.3,20.1H301.1z"/>
			<path class="st1" d="M308,121l2.9-13.4h2.6l-2.9,13.4H308z M313.3,100.6c1,0,1.7,0.8,1.7,1.7c0,1.1-1.1,2.1-2.1,2.1
				s-1.7-0.8-1.7-1.7C311.3,101.5,312.3,100.6,313.3,100.6z"/>
			<path class="st1" d="M325.2,112.3c-0.3-1.4-1.3-2.7-3.3-2.7c-2.3,0-4.5,1.9-4.5,5.7c0,2.4,1.5,3.9,3.6,3.9c2.1,0,3.1-1.3,3.7-2.5
				l2.2,1c-1,2-3,3.9-6.1,3.9c-3.8,0-6.2-2.7-6.2-6.2c0-4.8,3.3-8,7.3-8c3.6,0,5.1,2.3,5.6,4.2L325.2,112.3z"/>
			<path class="st1" d="M342.9,107.6l-2.1,9.9c-0.3,1.4-0.3,2.5-0.3,3c0,0.1,0,0.2,0,0.4H338c0-0.1-0.1-0.4-0.1-0.8
				c0-0.2,0-0.5,0.1-0.9c-0.9,1.1-2.3,2-4,2c-3.5,0-5.3-2.6-5.3-5.9c0-4.3,2.8-8.2,7-8.2c2.2,0,3.6,1,4.2,2.1l0.4-1.7L342.9,107.6
				L342.9,107.6z M331.4,115.4c0,2.1,1,3.6,3.2,3.6c2.6,0,4.4-2.6,4.4-6.1c0-1.9-0.9-3.4-3.1-3.4C333,109.5,331.4,112.7,331.4,115.4
				z"/>
			<path class="st1" d="M345.5,117.2l1.5-7.2h-2.4l0.5-2.4h0.4c1.6,0,2.5-0.8,2.8-2.2l0.5-2.1h2.4l-0.9,4.2h2.7l-0.5,2.4h-2.7
				l-1.5,7c-0.1,0.2-0.1,0.4-0.1,0.6c0,0.8,0.5,1.2,1.5,1.2c0.3,0,0.7,0,0.9-0.1l-0.5,2.1c-0.1,0.1-0.6,0.2-1.4,0.2
				c-2,0-3.2-1.1-3.2-2.9C345.3,117.9,345.4,117.5,345.5,117.2z"/>
			<path class="st1" d="M352.9,121l2.9-13.4h2.6l-2.9,13.4H352.9z M358.3,100.6c1,0,1.7,0.8,1.7,1.7c0,1.1-1.1,2.1-2.1,2.1
				s-1.7-0.8-1.7-1.7C356.2,101.5,357.3,100.6,358.3,100.6z"/>
			<path class="st1" d="M365.9,121.4c-3.8,0-6-2.8-6-6.2c0-4.6,3.1-8,7.3-8c3.9,0,5.9,2.8,5.9,6.1
				C373.1,117.9,370,121.4,365.9,121.4z M362.6,115.2c0,2.4,1.3,3.9,3.4,3.9c2.3,0,4.5-2,4.5-5.7c0-2.3-1.3-3.9-3.4-3.9
				C364.8,109.5,362.6,111.5,362.6,115.2z"/>
			<path class="st1" d="M383.1,121l1.7-8.1c0.1-0.3,0.1-0.6,0.1-1c0-1.5-0.8-2.3-2.5-2.3c-2.1,0-3.3,1.9-3.7,3.7l-1.7,7.8h-2.6
				l2.3-11c0.3-1.2,0.3-2.3,0.3-2.4h2.6c0,0.1-0.1,0.9-0.2,1.5c1-1.4,2.5-1.9,4.1-1.9c2.3,0,4,1.6,4,4c0,0.4-0.1,0.8-0.1,1.3
				l-1.8,8.5L383.1,121L383.1,121z"/>
			<path class="st1" d="M391.6,116.3c0,1.6,1.1,2.9,2.9,2.9c1.5,0,2.1-0.9,2.1-1.8c0-0.7-0.4-1.2-1.2-1.6l-2-0.9
				c-1.5-0.7-2.4-1.9-2.4-3.4c0-2.2,1.8-4.3,4.9-4.3c3.5,0,4.6,2.4,4.8,3.9l-2.3,0.6c-0.2-1-0.8-2.3-2.7-2.3c-1.3,0-2.1,0.8-2.1,1.8
				c0,0.8,0.4,1.2,1.1,1.5l1.8,0.8c1.8,0.8,2.8,2.1,2.8,3.7c0,1.7-1.3,4.2-4.9,4.2c-3.7,0-5.1-2.7-5.1-4.6L391.6,116.3z"/>
		</g>
	</g>
</g>
</svg>

