<?xml version="1.0" encoding="utf-8"?>
<!-- Generator: Adobe Illustrator 26.0.1, SVG Export Plug-In . SVG Version: 6.00 Build 0)  -->
<svg version="1.1" id="Calque_1" xmlns="http://www.w3.org/2000/svg" xmlns:xlink="http://www.w3.org/1999/xlink" x="0px" y="0px"
	 viewBox="0 0 425.2 87.7" style="enable-background:new 0 0 425.2 87.7;" xml:space="preserve">
<style type="text/css">
	.st0{fill:#3C3C3B;}
	.st1{fill:#751232;}
	.st2{fill:#FFFFFF;}
</style>
<g id="Calque_1_00000008864496837771870760000012562867886355370653_">
	<g>
		<g>
			<polygon class="st0" points="113.5,72.4 113.5,16.6 148.8,16.6 148.8,26.9 124.4,26.9 124.4,40.7 146.1,40.7 146.1,50.7 
				124.5,50.7 124.5,72.4 			"/>
			<g>
				<path class="st0" d="M192.1,53.1c0,11.9-8.7,20.5-20.3,20.5c-11.6,0-20.3-8.7-20.3-20.5c0-12,8.7-20.5,20.3-20.5
					C183.4,32.5,192.1,41.1,192.1,53.1 M181.7,53.1c0-7.3-4.7-11-9.8-11s-9.8,3.7-9.8,11c0,7.2,4.7,11,9.8,11S181.7,60.4,181.7,53.1
					"/>
				<path class="st0" d="M220.9,44.1c-1.2-0.2-2.2-0.3-3.1-0.3c-5.4,0-10,2.6-10,10.9v17.7h-10.5V33.7h10.1v5.8
					c2.4-5.1,7.7-6.1,11-6.1c0.9,0,1.6,0.1,2.4,0.2V44.1z"/>
				<path class="st0" d="M261,61.3c-2,6.7-8.1,12.3-17.6,12.3c-10.6,0-20-7.6-20-20.7c0-12.4,9.1-20.4,19-20.4
					c12,0,19.1,7.6,19.1,20.1c0,1.5-0.2,3.1-0.2,3.2h-27.7c0.2,5.1,4.6,8.8,9.8,8.8c4.9,0,7.6-2.4,8.8-5.9L261,61.3z M251.3,48.7
					c-0.2-3.9-2.7-7.6-8.7-7.6c-5.4,0-8.4,4.1-8.7,7.6H251.3z"/>
				<path class="st0" d="M278.7,72.4h-10.5V33.7h10.2v4.8c2.4-4,7-5.8,11.2-5.8c9.6,0,14,6.8,14,15.3v24.4h-10.5V49.8
					c0-4.3-2.1-7.7-7.2-7.7c-4.6,0-7.2,3.5-7.2,8L278.7,72.4L278.7,72.4z"/>
				<path class="st1" d="M341.2,32.9c-0.5-3.1-3.1-7.9-10.2-7.9c-5.3,0-8.7,3.4-8.7,7.1c0,3.1,2,5.5,6.1,6.3l7.8,1.5
					c10.1,2,15.6,8.6,15.6,16.5c0,8.6-7.2,17.2-20.1,17.2c-14.8,0-21.3-9.5-22.2-17.5l10.1-2.7c0.5,5.5,4.3,10.5,12.2,10.5
					c5.8,0,9-2.9,9-6.8c0-3.2-2.4-5.8-6.8-6.6l-7.8-1.6c-8.9-1.8-14.6-7.6-14.6-16c0-9.9,8.9-17.5,19.4-17.5
					c13.5,0,18.7,8.2,20,14.5L341.2,32.9z"/>
				<polygon class="st1" points="359.2,87.7 368.3,67.5 351.8,33.7 363.6,33.7 373.9,56.4 383.4,33.7 394.6,33.7 370.3,87.7 				"/>
				<path class="st1" d="M403,59.7c0.2,3.1,2.5,5.9,7.1,5.9c3.5,0,5.1-1.8,5.1-3.9c0-1.7-1.2-3.2-4.2-3.8l-5.1-1.2
					c-7.5-1.7-10.9-6.1-10.9-11.6c0-6.9,6.1-12.7,14.5-12.7c11,0,14.7,7,15.2,11.2l-8.7,2c-0.3-2.3-2-5.2-6.4-5.2
					c-2.8,0-5,1.7-5,3.9c0,1.9,1.4,3.1,3.5,3.5l5.5,1.2c7.6,1.6,11.5,6.2,11.5,11.9c0,6.3-4.9,12.8-15,12.8
					c-11.6,0-15.7-7.6-16.1-12L403,59.7z"/>
				<path class="st0" d="M25.7,42.1l-10.4,34C6,68.2,0,56.4,0,43.1c0-0.3,0-0.7,0-1.1H25.7z"/>
				<path class="st0" d="M52.6,1.1c-4,0.4-7.4,1.8-10.2,4.2c-3.4,2.9-6,6.3-7.7,10c-1.7,3.8-3.3,8.2-4.8,13.2L27.2,37H0.4
					c3-20.9,21-37,42.7-37C46.4,0,49.5,0.4,52.6,1.1"/>
				<path class="st1" d="M86.3,43.2C86.3,67,67,86.3,43.1,86.3c-6.1,0-11.9-1.3-17.2-3.5c1.5-3.9,3-8.5,4.7-13.9l8.1-26.8H51
					c-0.1,3.5,2.2,6,7,9.4c2.2,1.6,3.6,3,4.5,4.1c1.6,2.3,0.5,5.9-1.8,7.7c-1.2,0.9-2.6,1.4-4,1.4c-4.2,0-7.3-3.6-9.6-10.8L46.2,54
					c-0.8,3.4-1.3,6.8-1.5,10.3c2.8,1.1,6.1,1.7,9.9,1.7c4,0,7.6-1,10.8-2.9c3.1-1.9,5.1-4.5,6-7.7c1.3-4.8-0.7-7.8-7.2-12.4
					c-3.7-2.6-5.1-4.4-4.3-7.3C60.6,33,62.9,31,66,31c2.9,0,5.1,2.1,7.4,8.4l0.7-0.2c0.9-3.4,1.4-5.9,1.5-7.8
					c-2.2-1.1-5.1-1.7-8.7-1.7c-3.7,0-7.1,1-10,2.8c-1.9,1.2-3.4,2.7-4.4,4.4H40.4l8.3-26.8C49.1,8.9,49.5,7.8,50,7s1.2-1.2,2.2-1.2
					c0.8,0,1.4,0.2,1.9,0.7c0.4,0.5,0.8,1.2,1,2c0.8,2.3,1.5,3.9,2.2,4.9c0.7,1,1.9,1.5,3.5,1.5c1.6,0,2.9-0.6,4-1.7
					c1.1-1.2,1.6-2.5,1.6-4.1c0-0.9-0.2-1.7-0.4-2.5C78.2,14.2,86.3,27.8,86.3,43.2"/>
				<path class="st2" d="M75.6,31.5c-0.1,1.9-0.6,4.4-1.5,7.8l-0.7,0.2C71.1,33.1,68.9,31,66,31c-3.1,0-5.4,1.9-6.1,4.6
					c-0.8,2.9,0.7,4.7,4.3,7.3c6.5,4.6,8.5,7.6,7.2,12.4c-0.9,3.2-2.9,5.8-6,7.7C62.3,65,58.7,66,54.7,66c-3.8,0-7.1-0.6-9.9-1.7
					c0.2-3.5,0.7-6.9,1.5-10.3l0.7-0.2c2.3,7.2,5.5,10.8,9.6,10.8c1.5,0,2.8-0.5,4-1.4c2.3-1.7,3.4-5.3,1.8-7.7
					c-0.9-1.1-2.3-2.5-4.5-4.1c-4.8-3.4-7-5.9-7-9.4H38.8l-8.1,26.8c-1.7,5.4-3.2,10-4.7,13.9c-3.9-1.6-7.5-3.9-10.7-6.7l10.4-34H0
					c0-1.7,0.2-3.4,0.4-5.1h26.8l2.6-8.4c1.4-5.1,3-9.4,4.8-13.2c1.7-3.8,4.3-7.1,7.7-10c2.8-2.4,6.2-3.8,10.2-4.2
					c4.8,1.1,9.3,3,13.4,5.5c0.3,0.8,0.4,1.6,0.4,2.5c0,1.6-0.5,2.9-1.6,4.1s-2.4,1.7-4,1.7c-1.6,0-2.8-0.5-3.5-1.5
					c-0.7-1-1.5-2.6-2.2-4.9c-0.2-0.9-0.6-1.5-1-2c-0.4-0.5-1.1-0.7-1.9-0.7c-0.9,0-1.7,0.4-2.2,1.2s-0.9,1.9-1.3,3.2L40.4,37h12.1
					c1-1.7,2.5-3.1,4.4-4.4c2.9-1.9,6.3-2.8,10-2.8C70.6,29.8,73.5,30.4,75.6,31.5"/>
			</g>
		</g>
	</g>
</g>
<g id="Calque_3">
</g>
</svg>

